<svg xmlns="http://www.w3.org/2000/svg" shape-rendering="geometricPrecision" text-rendering="geometricPrecision" image-rendering="optimizeQuality" fill-rule="evenodd" clip-rule="evenodd" viewBox="0 0 464 511.863"><path d="M231.822 132.778c1.2-5.152 6.352-8.357 11.505-7.158 5.153 1.2 8.357 6.352 7.158 11.505l-20.773 88.972c-1.199 5.153-6.352 8.358-11.504 7.158-5.153-1.199-8.358-6.352-7.158-11.505l20.772-88.972zM21.123 259.247h16.714V52.395C37.837 23.601 61.438 0 90.232 0h230.505a7.998 7.998 0 016.39 3.183l96.876 104.809a7.937 7.937 0 012.118 5.411h.041v145.844h16.714c11.618 0 21.124 9.525 21.124 21.124v163.863c0 11.599-9.526 21.124-21.124 21.124h-17.058c-3.001 25.877-25.473 46.505-52.051 46.505H90.232c-26.72 0-49.082-20.526-52.055-46.505H21.123C9.526 465.358 0 455.853 0 444.234V280.371c0-11.619 9.506-21.124 21.123-21.124zm32.731 0h356.292V136.525h-32.219v-.033h-.124c-19.111-.302-34.068-5.373-44.736-14.486-11.073-9.458-17.282-22.969-18.52-39.763l-.075-1.098V16.016H90.232c-20.032 0-36.378 16.346-36.378 36.379v206.852zm355.795 206.111H54.344c2.862 17.157 17.981 30.488 35.888 30.488h283.535c17.803 0 32.993-13.394 35.882-30.488zM330.467 30.272V81.11c.913 12.412 5.265 22.192 12.97 28.775 7.822 6.682 19.34 10.418 34.49 10.676v-.03h32.219v-4.052l-79.679-86.207zM199.303 204.095c3.972 3.477 4.377 9.521.9 13.493-3.478 3.973-9.521 4.377-13.494.9l-36.354-31.854c-3.972-3.477-4.377-9.521-.9-13.493.295-.336.606-.644.933-.927l36.321-31.826c3.973-3.478 10.016-3.073 13.494.899 3.477 3.973 3.072 10.016-.9 13.494l-28.14 24.656 28.14 24.658zm77.99 14.393c-3.972 3.477-10.016 3.073-13.493-.9-3.478-3.972-3.073-10.016.899-13.493l28.14-24.658-28.14-24.656c-3.972-3.478-4.377-9.521-.899-13.494 3.477-3.972 9.521-4.377 13.493-.899l36.318 31.826c.328.283.639.591.933.927 3.477 3.972 3.073 10.016-.899 13.493l-36.352 31.854zM120.405 400.89l3.805-19.455c8.333 2.083 15.827 3.123 22.484 3.123 6.66 0 12.024-.27 16.101-.815v-9.755l-12.228-1.086c-11.051-.999-18.635-3.648-22.759-7.951-4.121-4.302-6.181-10.665-6.181-19.089 0-11.592 2.514-19.565 7.54-23.911 5.029-4.35 13.565-6.523 25.612-6.523 12.047 0 22.915 1.134 32.61 3.398l-3.398 18.978c-8.423-1.358-15.171-2.038-20.244-2.038s-9.375.226-12.908.68v9.416l9.783.952c11.865 1.177 20.063 4.008 24.591 8.492 4.531 4.484 6.795 10.71 6.795 18.682 0 5.706-.77 10.528-2.311 14.47-1.541 3.94-3.373 6.927-5.502 8.966-2.129 2.038-5.141 3.601-9.037 4.687-3.892 1.087-7.312 1.745-10.255 1.97-2.944.228-6.864.341-11.755.341-11.775 0-22.688-1.177-32.743-3.532zm128.036-1.631l-11.548 3.125c-15.219 0-25.414-3.926-30.707-11.684-2.674-3.923-4.621-8.266-5.708-13.111-1.087-4.844-1.628-10.712-1.628-17.595 0-15.491 2.899-26.789 8.695-33.9 5.797-7.109 16.212-10.666 31.249-10.666 15.036 0 25.498 3.579 31.386 10.734 5.887 7.156 8.83 18.432 8.83 33.832 0 11.502-2.399 20.786-7.199 27.851l9.782 5.708-7.067 15.623-26.085-4.754v-5.163zm-20.382-18.072h11.279c3.714 0 6.407-.429 8.083-1.29 1.675-.861 2.514-2.83 2.514-5.909v-35.325h-11.414c-3.62 0-6.272.429-7.947 1.29-1.675.861-2.515 2.834-2.515 5.909v35.325zm115.536 21.197h-54.349v-84.917h27.175v63.179h27.174v21.738z"/></svg>